<?xml version="1.0" encoding="UTF-8" standalone="no"?>
<!-- Created with Inkscape (http://www.inkscape.org/) -->

<svg
   width="210mm"
   height="210mm"
   viewBox="0 0 210 210"
   version="1.1"
   id="svg1161"
   inkscape:version="1.1.2 (0a00cf5339, 2022-02-04)"
   sodipodi:docname="rocket.svg"
   inkscape:export-filename="/home/andres/prodverse/prodverse.ixpantia.com/docs/figures/rocket.png"
   inkscape:export-xdpi="96"
   inkscape:export-ydpi="96"
   xmlns:inkscape="http://www.inkscape.org/namespaces/inkscape"
   xmlns:sodipodi="http://sodipodi.sourceforge.net/DTD/sodipodi-0.dtd"
   xmlns:xlink="http://www.w3.org/1999/xlink"
   xmlns="http://www.w3.org/2000/svg"
   xmlns:svg="http://www.w3.org/2000/svg">
  <sodipodi:namedview
     id="namedview1163"
     pagecolor="#ffffff"
     bordercolor="#000000"
     borderopacity="0.25"
     inkscape:pageshadow="2"
     inkscape:pageopacity="0.0"
     inkscape:pagecheckerboard="0"
     inkscape:document-units="mm"
     showgrid="false"
     width="209mm"
     inkscape:zoom="0.27433372"
     inkscape:cx="107.53326"
     inkscape:cy="934.99261"
     inkscape:window-width="1920"
     inkscape:window-height="1080"
     inkscape:window-x="0"
     inkscape:window-y="0"
     inkscape:window-maximized="1"
     inkscape:current-layer="layer2" />
  <defs
     id="defs1158">
    <linearGradient
       inkscape:collect="always"
       xlink:href="#linearGradient12860"
       id="linearGradient12862"
       x1="2859.2832"
       y1="2988.3823"
       x2="3350.9912"
       y2="2598.6338"
       gradientUnits="userSpaceOnUse"
       gradientTransform="translate(4.41,5.435)" />
    <linearGradient
       inkscape:collect="always"
       id="linearGradient12860">
      <stop
         style="stop-color:#e85600;stop-opacity:1;"
         offset="0"
         id="stop12856" />
      <stop
         style="stop-color:#ffffff;stop-opacity:0.99205935"
         offset="1"
         id="stop12858" />
    </linearGradient>
    <linearGradient
       inkscape:collect="always"
       xlink:href="#linearGradient12860"
       id="linearGradient14196"
       x1="1214.4373"
       y1="2968.5806"
       x2="1487.5198"
       y2="2747.0881"
       gradientUnits="userSpaceOnUse"
       gradientTransform="translate(4.41,5.435)" />
    <linearGradient
       inkscape:collect="always"
       xlink:href="#linearGradient15050"
       id="linearGradient15682"
       x1="682.63556"
       y1="3281.095"
       x2="2530.2859"
       y2="2423.5796"
       gradientUnits="userSpaceOnUse"
       gradientTransform="translate(4.41,5.435)" />
    <linearGradient
       inkscape:collect="always"
       id="linearGradient15050">
      <stop
         style="stop-color:#9c9c9c;stop-opacity:1"
         offset="0"
         id="stop15046" />
      <stop
         style="stop-color:#ffffff;stop-opacity:1"
         offset="1"
         id="stop15048" />
    </linearGradient>
    <linearGradient
       inkscape:collect="always"
       xlink:href="#linearGradient15050"
       id="linearGradient15052"
       x1="737.13715"
       y1="3697.2737"
       x2="3266.4866"
       y2="2540.866"
       gradientUnits="userSpaceOnUse"
       gradientTransform="translate(4.41,5.435)" />
    <linearGradient
       inkscape:collect="always"
       xlink:href="#linearGradient12260"
       id="linearGradient12616"
       x1="1897.1143"
       y1="2887.7634"
       x2="2106.6589"
       y2="2887.7634"
       gradientUnits="userSpaceOnUse" />
    <linearGradient
       inkscape:collect="always"
       id="linearGradient12260">
      <stop
         style="stop-color:#3f71ff;stop-opacity:1;"
         offset="0"
         id="stop12256" />
      <stop
         style="stop-color:#001552;stop-opacity:1"
         offset="1"
         id="stop12258" />
    </linearGradient>
    <linearGradient
       inkscape:collect="always"
       xlink:href="#linearGradient12260"
       id="linearGradient12744"
       x1="2523.7266"
       y1="2887.4358"
       x2="2735.1985"
       y2="2887.4358"
       gradientUnits="userSpaceOnUse" />
    <linearGradient
       inkscape:collect="always"
       xlink:href="#linearGradient12260"
       id="linearGradient12618"
       x1="2209.7012"
       y1="2887.5908"
       x2="2419.1016"
       y2="2887.5908"
       gradientUnits="userSpaceOnUse" />
    <linearGradient
       inkscape:collect="always"
       xlink:href="#linearGradient12260"
       id="linearGradient11192"
       x1="3318.5688"
       y1="2102.8896"
       x2="981.73651"
       y2="3686.6096"
       gradientUnits="userSpaceOnUse" />
    <linearGradient
       inkscape:collect="always"
       xlink:href="#linearGradient12260"
       id="linearGradient12622"
       x1="2491.053"
       y1="2364.7783"
       x2="2612.2473"
       y2="2364.7783"
       gradientUnits="userSpaceOnUse" />
    <linearGradient
       inkscape:collect="always"
       xlink:href="#linearGradient12260"
       id="linearGradient12624"
       x1="2287.6177"
       y1="2373.0371"
       x2="2355.3757"
       y2="2373.0371"
       gradientUnits="userSpaceOnUse" />
    <linearGradient
       inkscape:collect="always"
       xlink:href="#linearGradient12260"
       id="linearGradient12628"
       x1="2490.1111"
       y1="3433.4265"
       x2="2611.5942"
       y2="3433.4265"
       gradientUnits="userSpaceOnUse" />
    <linearGradient
       inkscape:collect="always"
       xlink:href="#linearGradient12260"
       id="linearGradient12626"
       x1="2287.5042"
       y1="3420.9973"
       x2="2354.8848"
       y2="3420.9973"
       gradientUnits="userSpaceOnUse" />
  </defs>
  <g
     inkscape:label="Layer 1"
     inkscape:groupmode="layer"
     id="layer1" />
  <g
     inkscape:groupmode="layer"
     id="layer2"
     inkscape:label="planet">
    <circle
       style="fill:none;stroke-width:2.64583;stroke-linecap:round"
       id="path881"
       cx="118.26919"
       cy="121.55346"
       r="118.81299" />
    <ellipse
       style="fill:none;stroke-width:2.64583;stroke-linecap:round"
       id="path883"
       cx="205.17776"
       cy="209.8251"
       rx="64.110847"
       ry="57.92178" />
    <circle
       style="fill:#fcf48c;stroke-width:5.25564;stroke-linecap:round;fill-opacity:1"
       id="path931"
       cx="105"
       cy="105"
       r="104.4486" />
    <circle
       style="fill:#d6d087;fill-opacity:1;stroke-width:0.548232;stroke-linecap:round"
       id="path931-3"
       cx="61.914207"
       cy="44.499329"
       r="10.895364" />
    <circle
       style="fill:#d6d087;fill-opacity:1;stroke-width:0.939162;stroke-linecap:round"
       id="path931-3-6"
       cx="49.936298"
       cy="91.21328"
       r="18.664574" />
    <circle
       style="fill:#d6d087;fill-opacity:1;stroke-width:0.581035;stroke-linecap:round"
       id="path931-3-6-7"
       cx="94.705147"
       cy="113.65757"
       r="11.547281" />
    <circle
       style="fill:#d6d087;fill-opacity:1;stroke-width:0.746075;stroke-linecap:round"
       id="path931-3-6-7-5"
       cx="72.490105"
       cy="146.38589"
       r="14.827227" />
    <circle
       style="fill:#d6d087;fill-opacity:1;stroke-width:0.856967;stroke-linecap:round"
       id="path931-3-6-7-5-6"
       cx="89.783989"
       cy="184.30905"
       r="17.031061" />
    <circle
       style="fill:#d6d087;fill-opacity:1;stroke-width:0.444075;stroke-linecap:round"
       id="path931-3-6-7-5-6-1"
       cx="122.45309"
       cy="191.58395"
       r="8.8253841" />
    <circle
       style="fill:#d6d087;fill-opacity:1;stroke-width:0.550017;stroke-linecap:round"
       id="path931-3-6-7-5-6-1-8"
       cx="55.591171"
       cy="174.67627"
       r="10.930846" />
    <circle
       style="fill:#d6d087;fill-opacity:1;stroke-width:0.722938;stroke-linecap:round"
       id="path931-3-6-7-5-6-1-8-7"
       cx="28.747641"
       cy="127.76971"
       r="14.367427" />
    <circle
       style="fill:#d6d087;fill-opacity:1;stroke-width:0.416671;stroke-linecap:round"
       id="path931-3-6-7-5-6-1-8-7-9"
       cx="46.548313"
       cy="150.21117"
       r="8.2807875" />
    <circle
       style="fill:#d6d087;fill-opacity:1;stroke-width:0.212974;stroke-linecap:round"
       id="path931-3-6-7-5-6-1-8-7-9-2"
       cx="56.705421"
       cy="116.07368"
       r="4.2325687" />
    <circle
       style="fill:#d6d087;fill-opacity:1;stroke-width:0.212974;stroke-linecap:round"
       id="path931-3-6-7-5-6-1-8-7-9-2-0"
       cx="62.654945"
       cy="125.78725"
       r="4.2325687" />
    <circle
       style="fill:#d6d087;fill-opacity:1;stroke-width:0.212974;stroke-linecap:round"
       id="path931-3-6-7-5-6-1-8-7-9-2-0-2"
       cx="70.169617"
       cy="112.41991"
       r="4.2325687" />
    <circle
       style="fill:#d6d087;fill-opacity:1;stroke-width:0.401474;stroke-linecap:round"
       id="path931-3-6-7-5-6-1-8-7-9-2-0-2-3"
       cx="30.889881"
       cy="66.918907"
       r="7.9787469" />
    <circle
       style="fill:#d6d087;fill-opacity:1;stroke-width:0.401474;stroke-linecap:round"
       id="path931-3-6-7-5-6-1-8-7-9-2-0-2-3-7"
       cx="20.092518"
       cy="94.173073"
       r="7.9787469" />
    <circle
       style="fill:#d6d087;fill-opacity:1;stroke-width:0.371618;stroke-linecap:round"
       id="path931-3-6-7-5-3"
       cx="111.85251"
       cy="161.18443"
       r="7.385407" />
    <circle
       style="fill:#d6d087;fill-opacity:1;stroke-width:0.220275;stroke-linecap:round"
       id="path931-3-6-7-5-3-5"
       cx="109.13708"
       cy="140.05284"
       r="4.3776717" />
    <circle
       style="fill:#d6d087;fill-opacity:1;stroke-width:0.573204;stroke-linecap:round"
       id="path931-3-6-7-5-3-5-6"
       cx="136.79716"
       cy="153.12936"
       r="11.391669" />
    <circle
       style="fill:#d6d087;fill-opacity:1;stroke-width:0.295364;stroke-linecap:round"
       id="path931-3-6-7-5-3-5-6-2"
       cx="133.32884"
       cy="177.64854"
       r="5.8699651" />
    <circle
       style="fill:#d6d087;fill-opacity:1;stroke-width:0.504095;stroke-linecap:round"
       id="path931-3-6-7-5-3-5-6-2-9"
       cx="162.26486"
       cy="173.5424"
       r="10.018211" />
    <circle
       style="fill:#d6d087;fill-opacity:1;stroke-width:1.56593;stroke-linecap:round"
       id="path931-3-6-7-5-3-5-6-2-9-1"
       cx="148.27393"
       cy="83.651703"
       r="31.12079" />
    <circle
       style="fill:#d6d087;fill-opacity:1;stroke-width:0.68309;stroke-linecap:round"
       id="path931-3-6-7-5-3-5-6-2-9-1-2"
       cx="92.744736"
       cy="77.363564"
       r="13.575518" />
    <circle
       style="fill:#d6d087;fill-opacity:1;stroke-width:0.400557;stroke-linecap:round"
       id="path931-3-6-7-5-3-5-6-2-9-1-2-7"
       cx="99.423874"
       cy="35.377918"
       r="7.9605479" />
    <circle
       style="fill:#d6d087;fill-opacity:1;stroke-width:0.245441;stroke-linecap:round"
       id="path931-3-6-7-5-3-5-6-2-9-1-2-7-0"
       cx="125.73721"
       cy="32.955238"
       r="4.87781" />
    <circle
       style="fill:#d6d087;fill-opacity:1;stroke-width:0.498927;stroke-linecap:round"
       id="path931-3-6-7-5-3-5-6-2-9-1-2-7-0-9"
       cx="152.17738"
       cy="36.545952"
       r="9.9155121" />
    <circle
       style="fill:#d6d087;fill-opacity:1;stroke-width:0.222071;stroke-linecap:round"
       id="path931-3-6-7-5-3-5-6-2-9-1-2-7-0-9-3"
       cx="117.34378"
       cy="50.112984"
       r="4.4133735" />
    <circle
       style="fill:#d6d087;fill-opacity:1;stroke-width:0.522742;stroke-linecap:round"
       id="path931-3-6-7-5-3-5-6-2-9-1-2-7-0-9-3-6"
       cx="165.93408"
       cy="133.61746"
       r="10.388823" />
    <circle
       style="fill:#d6d087;fill-opacity:1;stroke-width:0.340463;stroke-linecap:round"
       id="path931-3-6-7-5-3-5-6-2-9-1-2-7-0-9-3-6-0"
       cx="186.5768"
       cy="106.46832"
       r="6.766263" />
    <circle
       style="fill:#d6d087;fill-opacity:1;stroke-width:0.434986;stroke-linecap:round"
       id="path931-3-6-7-5-3-5-6-2-9-1-2-7-0-9-3-6-0-6"
       cx="191.61858"
       cy="130.79005"
       r="8.6447897" />
    <circle
       style="fill:#d6d087;fill-opacity:1;stroke-width:0.320765;stroke-linecap:round"
       id="path931-3-6-7-5-3-5-6-2-9-1-2-7-0-9-3-6-0-6-2"
       cx="178.43123"
       cy="153.14276"
       r="6.3747902" />
    <g
       id="g14687"
       transform="matrix(0.04965586,-0.06382265,0.06382265,0.04965586,-182.69929,103.42374)"
       style="display:inline">
      <path
         id="path5012"
         style="fill:url(#linearGradient12862);fill-opacity:1;stroke:none;stroke-width:12;stroke-linecap:round;stroke-miterlimit:4;stroke-dasharray:none;stroke-opacity:1"
         d="m 3061.5703,2670.291 c -8.3045,11.5927 -16.8696,23.0006 -24.9442,34.7561 -8.5327,13.425 -14.0781,28.4598 -18.9025,43.5401 -6.9698,22.2322 -12.1592,44.9649 -17.156,67.7047 -3.814,18.1162 -6.4098,36.5366 -6.8089,55.0648 -0.6453,20.4355 0.2048,40.8759 0.8406,61.3004 1.0394,27.136 2.8742,54.3701 8.4515,81.0011 4.2234,19.9268 10.6909,39.3539 18.9695,57.958 9.9879,22.7358 22.0665,44.4579 33.4926,66.4823 2.0153,3.8408 4.0296,7.6822 6.0457,11.5226 17.7457,-7.9823 35.6705,-15.5694 53.2756,-23.8596 38.4172,-18.5746 73.8516,-43.5764 103.4252,-74.4008 19.3444,-20.2154 36.0842,-43.1195 48.0762,-68.4606 9.6842,-20.6166 16.1045,-43.0422 16.6674,-65.9106 0.4231,-15.8936 -1.42,-31.8122 -5.0083,-47.2878 -5.6462,-23.7983 -16.1236,-46.3595 -30.122,-66.3847 -18.9756,-27.3517 -43.7883,-50.1866 -70.6704,-69.6086 -22.3655,-16.1613 -46.3357,-29.9862 -70.9285,-42.4531 -14.5956,-7.4243 -29.2581,-14.7168 -43.8617,-22.1264 -0.2806,0.3874 -0.5612,0.7747 -0.8418,1.1621 z" />
      <path
         id="path5051"
         style="fill:url(#linearGradient14196);fill-opacity:1;stroke:none;stroke-width:12;stroke-linecap:round;stroke-miterlimit:4;stroke-dasharray:none;stroke-opacity:1"
         d="m 1430.3711,2646.3164 c -16.5273,11.0192 -33.1972,21.8329 -49.5998,33.0401 -25.5771,18.4233 -46.2277,43.1507 -61.6136,70.5481 -8.5579,15.3047 -15.642,31.4692 -20.6728,48.2778 -4.2386,15.2674 -5.2715,31.1795 -5.8459,46.9434 -0.7718,23.8646 -0.6031,47.7453 -0.6682,71.6187 -0.025,28.578 -0.01,57.156 -0.012,85.734 7.4376,15.6093 14.6629,31.3216 22.3846,46.7967 11.9129,22.7709 27.0416,43.782 44.2045,62.8777 10.0094,10.9897 20.86,21.3192 33.0845,29.8265 7.7269,5.2111 15.8444,9.8054 23.7315,14.7635 5.8616,3.5929 11.7238,7.185 17.5851,10.7786 0.7137,-58.1122 1.5224,-116.2234 2.0602,-174.3375 0.4244,-64.1474 0.4008,-128.2985 -0.2103,-192.4446 -0.5443,-52.0448 -1.2418,-104.0879 -1.8479,-156.132 -0.8601,0.5697 -1.7201,1.1393 -2.5801,1.709 z" />
      <path
         id="path5090"
         style="fill:url(#linearGradient15682);fill-opacity:1;stroke:none;stroke-width:12;stroke-linecap:round;stroke-miterlimit:4;stroke-dasharray:none;stroke-opacity:1"
         d="m 1589.6758,2582.1699 c -15.326,0.4446 -30.2333,4.653 -44.6368,9.628 -9.2996,3.2171 -18.6851,6.8348 -26.5018,12.9642 -7.1989,5.842 -12.0605,14.648 -12.6196,23.9546 -0.6087,7.0045 -0.8139,14.0367 -1.1033,21.0597 -0.5816,17.26 -0.8597,34.5285 -1.1683,51.7951 -0.7681,46.1331 -1.029,92.2726 -1.2757,138.4108 -0.319,68.5388 -0.272,137.0797 0.2213,205.6175 0.2639,31.2193 0.6125,62.441 1.5577,93.6481 0.5173,13.9088 1.5564,27.8325 3.969,41.5524 1.2898,6.9203 3.6129,13.857 8.1357,19.3658 4.6175,5.6531 11.0948,9.3225 17.5401,12.5158 9.9401,4.8429 20.9522,7.0004 31.9072,7.894 10.3709,0.8575 20.8015,0.6893 31.1836,0.127 16.6703,-1.0521 33.4178,-4.2129 48.6454,-11.2791 13.3626,-6.1482 25.3316,-15.2664 34.85,-26.4783 8.055,-9.3769 14.4503,-20.0544 19.8854,-31.1245 4.4491,-8.768 8.8911,-17.539 13.332,-26.3112 0,-146.7032 0,-293.4063 0,-440.1094 -6.6812,-13.2783 -13.0958,-26.6923 -20.1022,-39.8033 -7.9314,-14.1602 -18.5576,-26.974 -31.7894,-36.4708 -9.1063,-6.6889 -18.9409,-12.3451 -29.0941,-17.2799 -12.0661,-5.7089 -25.2213,-9.5258 -38.6394,-9.6749 -1.4322,-0.033 -2.8645,-0.01 -4.2968,0 z" />
      <path
         id="path5129"
         style="fill:url(#linearGradient15052);fill-opacity:1;stroke:none;stroke-width:12;stroke-linecap:round;stroke-miterlimit:4;stroke-dasharray:none;stroke-opacity:1"
         d="m 1763.1191,2625.3965 c 2.8175,10.226 5.9287,20.375 8.5424,30.656 0.7772,6.7122 0.9898,13.5111 1.3412,20.2178 1.2278,26.3819 1.7996,52.7884 2.4279,79.1897 1.4422,65.9184 2.0728,131.8516 2.4677,197.7837 0.214,40.0457 0.3909,80.0963 -0.2961,120.1386 -0.2098,10.8452 -0.487,21.7737 -0.9948,32.5572 -0.5752,10.9837 -1.1793,21.9188 -3.0235,32.7676 -1.1002,5.7799 -2.7772,11.4277 -4.22,17.127 -2.9654,11.2405 -5.9171,22.4845 -8.8698,33.7284 226.7222,-1.1172 453.4444,-2.2306 680.1663,-3.379 133.0549,-0.759 266.1094,-1.6646 399.1588,-3.1068 31.3654,-0.3611 62.7329,-0.7149 94.0902,-1.5328 8.0766,-0.3571 16.1007,-1.5209 24.0305,-3.0619 6.1154,-1.2812 12.3332,-3.244 17.1508,-7.3873 4.5178,-3.8185 7.3639,-9.5144 7.7039,-15.4211 0.5451,-7.044 -1.6563,-13.9184 -4.0937,-20.4306 -4.1573,-11.054 -9.4027,-21.6515 -14.0503,-32.5003 -4.8391,-11.0959 -9.4802,-22.36 -13.5647,-33.7115 -2.6457,-7.3761 -5.1118,-14.9124 -7.2363,-22.3984 -3.9636,-13.8917 -6.8344,-28.0151 -8.7789,-42.3444 -1.0912,-8.0281 -1.8985,-16.0922 -2.5238,-24.1693 -0.4559,-6.1346 -0.8406,-12.4776 -1.125,-18.6816 -1.0128,-22.1856 -1.0239,-44.4016 -0.9039,-66.6053 0.1699,-18.2973 0.6046,-36.6436 1.8629,-54.8752 1.1477,-16.5403 2.9246,-33.0011 6.039,-49.291 2.2568,-11.8916 5.3612,-23.8203 9.1367,-35.3086 5.2428,-15.9734 11.9591,-31.4236 19.3837,-46.4945 6.9946,-14.317 14.4513,-28.415 20.959,-42.9637 1.9983,-5.0473 0.7324,-11.1433 -3.0102,-15.0554 -3.6711,-4.016 -8.8088,-6.1453 -13.6769,-8.3145 -7.0227,-3.0041 -14.3026,-5.3955 -21.6961,-7.2991 -10.1507,-2.2867 -20.574,-2.8518 -30.9203,-3.6199 -22.8164,-1.46 -45.6809,-1.9364 -68.5339,-2.4869 -47.9673,-1.0521 -95.9457,-1.4523 -143.9217,-1.8851 -69.3871,-0.5713 -138.776,-0.9046 -208.1647,-1.2203 -164.4095,-0.7074 -328.8196,-1.2622 -493.2295,-1.8795 -80.7454,-0.2993 -161.4908,-0.5945 -242.2362,-0.8963 0.2031,0.7181 0.4062,1.4362 0.6093,2.1543 z m 241.418,167.0664 c 6.0902,0.037 12.2758,0.079 18.3027,0.334 1.7796,0.077 3.43,0.1784 5.1719,0.2969 7.784,0.5365 15.8741,1.6441 22.8842,5.4067 5.2224,2.7976 10.1393,6.425 14.8284,10.1565 13.9244,11.1618 25.4442,25.3984 33.0232,41.5821 6.733,14.3446 10.3989,30.2755 10.3184,46.1816 -0.025,4.1145 -0.287,8.0794 -0.7944,12.1867 -0.3501,2.7397 -0.8097,5.5336 -1.3678,8.1498 -0.561,2.6981 -1.2961,5.593 -2.1269,8.3231 -3.0797,10.1965 -7.8601,19.8852 -14.1635,28.4763 -0.541,0.7223 -1.2492,1.6721 -1.874,2.4649 -6.7006,8.5422 -14.8632,15.9343 -24.0264,21.7578 -1.5083,0.9575 -3.2001,2.014 -4.8256,2.9345 -3.8229,2.1931 -7.7978,4.1267 -11.9049,5.7276 -1.2295,0.4681 -2.6918,0.9968 -4.0344,1.4257 -6.6564,2.0909 -13.5152,3.5045 -20.4126,4.5234 -13.1169,1.8871 -26.5144,1.8446 -39.6136,-0.167 -12.0938,-1.8841 -23.9783,-5.9351 -34.1791,-12.7941 -6.8515,-4.5138 -13,-10.0355 -18.522,-16.0896 -1.1533,-1.2684 -2.422,-2.7164 -3.5731,-4.0967 -5.1262,-6.1367 -9.7843,-12.6596 -14.0702,-19.407 -0.9687,-1.5632 -1.8239,-3.0202 -2.6993,-4.6657 -2.4614,-4.5521 -4.2508,-9.4729 -5.1143,-14.5821 -1.121,-6.3332 -1.3283,-12.7837 -1.4825,-19.2002 -0.2763,-14.0751 0.2874,-28.3505 4.0845,-41.9856 2.9084,-10.4894 7.8988,-20.397 14.6628,-28.9302 1.4915,-1.8981 3.0601,-3.7354 4.6339,-5.4711 6.3351,-6.993 13.6684,-13.1384 21.1324,-18.7824 3.4248,-2.531 6.832,-5.103 10.461,-7.3379 0.755,-0.4581 1.7702,-1.0317 2.6516,-1.4888 3.3882,-1.8042 7.09,-2.9931 10.8659,-3.5698 6.8505,-1.1029 13.8122,-1.1341 20.7327,-1.2814 3.6768,-0.047 7.3539,-0.064 11.031,-0.078 z" />
      <path
         style="fill:url(#linearGradient12616);fill-opacity:1;stroke:none;stroke-width:10;stroke-linecap:round;stroke-miterlimit:4;stroke-dasharray:none;stroke-opacity:1"
         d="m 1967.8819,2987.3616 c -17.1554,-6.4463 -39.6782,-25.5557 -54.9206,-46.5973 -13.1165,-18.1068 -15.847,-27.2569 -15.847,-53.106 0,-26.2684 2.8108,-35.3629 17.6919,-57.2445 23.1408,-34.0266 46.3641,-45.9834 89.3122,-45.9834 29.6399,0 36.456,2.1244 56.764,17.6919 65.5175,50.2236 59.7639,141.0206 -11.211,176.9188 -23.2088,11.7387 -62.1499,15.7002 -81.7895,8.3205 z m 68.2931,-69.3142 c 39.4392,-39.4391 -20.713,-103.1843 -66.8646,-70.8585 -16.18,11.333 -21.0082,40.373 -10.1903,61.2925 9.9367,19.2155 15.104,21.917 43.0321,22.4979 15.0549,0.3132 24.2867,-3.1958 34.0228,-12.9319 z"
         id="path5572"
         transform="translate(4.41,5.435)" />
      <path
         style="fill:url(#linearGradient12744);fill-opacity:1;stroke:none;stroke-width:10;stroke-linecap:round;stroke-miterlimit:4;stroke-dasharray:none;stroke-opacity:1"
         d="m 2588.4976,2982.6177 c -77.311,-33.5264 -87.4538,-129.0552 -19.3873,-182.5964 16.5154,-12.991 65.7946,-20.1429 92.5396,-13.4304 34.8987,8.7591 73.5485,61.9759 73.5485,101.269 0,37.9027 -31.8294,84.4266 -66.8001,97.6395 -21.5315,8.1351 -57.4864,6.8384 -79.9007,-2.8817 z m 76.1307,-64.7734 c 18.7312,-19.9385 16.9785,-44.2351 -4.5806,-63.4982 -18.3652,-16.4093 -37.4513,-19.498 -56.9768,-9.2206 -17.0766,8.9885 -19.879,15.1322 -19.9725,43.7866 -0.1008,30.9173 12.556,42.497 46.4501,42.497 16.7675,0 25.5135,-3.3819 35.0798,-13.5648 z"
         id="path5650"
         transform="translate(4.41,5.435)" />
      <path
         style="fill:url(#linearGradient12618);fill-opacity:1;stroke:none;stroke-width:10;stroke-linecap:round;stroke-miterlimit:4;stroke-dasharray:none;stroke-opacity:1"
         d="m 2268.392,2979.7042 c -58.8676,-29.1388 -76.6817,-99.1388 -38.6059,-151.701 23.2725,-32.1267 44.9162,-43.5281 82.6774,-43.5525 36.598,-0.024 55.5474,8.3183 78.6393,34.6185 47.4088,53.9957 33.0785,127.0366 -31.3857,159.9719 -30.0632,15.3595 -61.1783,15.5854 -91.3251,0.6631 z m 78.7126,-56.3336 c 15.907,-11.1417 19.8457,-31.8361 10.3738,-54.5055 -9.6708,-23.1455 -28.2067,-32.6266 -54.2386,-27.743 -54.9408,10.307 -46.0364,90.287 10.0519,90.287 12.285,0 27.5008,-3.6173 33.8129,-8.0385 z"
         id="path5689"
         transform="translate(4.41,5.435)" />
      <path
         id="path5972"
         style="fill:#ffffff;fill-opacity:1;stroke:none;stroke-width:13.6091;stroke-linecap:round;stroke-miterlimit:4;stroke-dasharray:none;stroke-opacity:1"
         d="m 2002.7754,2844.3887 c -14.9118,0.1973 -29.717,7.5829 -38.36,19.8216 -7.8388,10.9312 -10.2005,25.563 -6.1947,38.4058 4.5382,15.4577 16.8288,28.2852 31.9103,33.8341 10.3017,3.8524 22.0674,4.3169 32.3684,0.2106 7.4087,-2.8798 14.1554,-7.4483 19.634,-13.2013 6.8767,-7.3444 11.3915,-17.0282 11.9124,-27.1305 0.7583,-11.9203 -3.423,-24.0938 -11.4684,-32.9417 -5.6197,-6.4299 -12.3798,-12.0496 -20.2663,-15.4557 -6.1654,-2.5526 -12.8823,-3.6236 -19.5357,-3.5429 z" />
      <path
         id="path6011"
         style="fill:#ffffff;fill-opacity:1;stroke:none;stroke-width:13.6091;stroke-linecap:round;stroke-miterlimit:4;stroke-dasharray:none;stroke-opacity:1"
         d="m 2316.4766,2845.3379 c -7.1823,0.3224 -14.584,1.3439 -20.932,4.9385 -7.132,4.0285 -12.892,10.0753 -17.7751,16.5707 -4.2681,5.8635 -7.1971,12.7474 -8.094,19.966 -1.6258,11.6101 1.5491,23.8586 8.8379,33.0728 6.8086,8.775 16.6213,15.1017 27.3197,17.9922 7.0602,1.7473 14.4523,1.7509 21.6355,0.8508 7.384,-0.9853 14.6895,-3.3942 20.768,-7.7856 11.2925,-7.9467 18.906,-21.0433 19.8832,-34.8503 0.5391,-7.7472 -1.2743,-15.7424 -5.6502,-22.2136 -3.0987,-4.7493 -6.8866,-8.9995 -10.6942,-13.1841 -3.861,-4.0921 -7.8932,-8.1021 -12.5801,-11.25 -5.1779,-3.1745 -11.3813,-3.9217 -17.3344,-4.1221 -1.7939,-0.041 -3.5915,-0.073 -5.3843,0.015 z" />
      <path
         id="path6050"
         style="fill:#ffffff;fill-opacity:1;stroke:none;stroke-width:13.6091;stroke-linecap:round;stroke-miterlimit:4;stroke-dasharray:none;stroke-opacity:1"
         d="m 2629.2324,2844.3223 c -14.2123,0.1324 -28.2909,7.2939 -36.3955,19.0355 -5.0415,7.1371 -7.4402,15.7719 -8.5437,24.3468 -0.7182,5.8512 -0.7341,11.8624 0.6005,17.6281 1.6579,6.4306 5.6947,11.9328 10.2443,16.6432 5.8115,5.9974 12.8136,10.7746 20.2956,14.4421 4.7147,2.2538 9.8457,3.7216 15.0887,3.8795 6.2756,0.3161 12.6224,-0.4573 18.6162,-2.35 5.2276,-1.737 9.9305,-4.79 13.9966,-8.4704 7.1999,-6.3232 13.0621,-14.1408 17.2727,-22.7389 2.6076,-5.5142 4.2627,-11.7506 3.187,-17.8615 -1.1268,-7.1904 -4.7322,-13.7138 -8.8871,-19.5847 -5.2323,-7.2251 -11.8246,-13.5229 -19.4809,-18.1295 -7.8367,-4.5628 -16.918,-7.007 -25.9944,-6.8402 z" />
      <path
         style="fill:url(#linearGradient11192);fill-opacity:1;stroke:none;stroke-width:38.4925;stroke-linecap:round;stroke-miterlimit:4;stroke-dasharray:none;stroke-opacity:1"
         d="m 1814.7093,3691.7374 c -29.6171,-11.1696 -45.7364,-21.9967 -60.6675,-40.7494 -8.569,-10.7622 -16.1935,-21.4081 -16.9433,-23.6574 -0.7909,-2.3727 -20.6976,-5.2206 -47.4167,-6.7834 -50.4984,-2.9538 -60.3039,-6.3218 -69.3533,-23.8214 -7.6074,-14.7112 -4.5237,-30.2712 8.4082,-42.4255 l 9.729,-9.1442 221.8309,-2.784 c 122.0069,-1.5312 224.1249,-3.6643 226.9288,-4.7402 5.3697,-2.0606 143.413,-277.1362 143.413,-285.7758 0,-4.0411 -30.6888,-5.0166 -157.8191,-5.0166 h -157.8191 v 80.9695 c 0,91.2547 -0.4913,93.141 -28.5338,109.575 l -15.8939,9.3145 -300.324,1.1132 c -283.9292,1.0524 -300.9023,0.7345 -310.9178,-5.8243 -21.4271,-14.0318 -21.2028,-40.8148 0.4606,-55.0092 9.0337,-5.9191 35.9897,-6.6828 297.9274,-8.4407 l 287.995,-1.9327 v -64.8827 -64.8826 h -71.2694 -71.2693 l -20.1503,11.2559 c -33.8807,18.9259 -59.8784,24.4336 -106.2658,22.5128 -46.9344,-1.9434 -73.5561,-10.3447 -102.2815,-32.2782 -9.8899,-7.5515 -32.3399,-18.5299 -50.3213,-24.608 -83.9816,-28.3876 -133.6531,-70.4963 -173.1857,-146.817 l -17.2416,-33.2861 -108.7638,-1.4137 c -118.5729,-1.5412 -123.0489,-2.3721 -133.23711,-24.7328 -6.3394,-13.9134 3.6723,-34.265 19.58511,-39.8122 6.6904,-2.3323 42.0168,-4.1291 81.4851,-4.1446 38.3209,-0.015 81.3664,-1.1316 95.6568,-2.4812 l 25.9824,-2.4539 v -70.1733 -70.1733 l -12.0289,-2.4058 c -6.6159,-1.3232 -53.1158,-2.4058 -103.3331,-2.4058 -99.24969,0 -95.6943,0.7421 -107.72203,-22.4824 -5.80597,-11.2108 0.61928,-29.3572 12.86573,-36.3357 5.5235,-3.1475 43.3306,-5.3794 117.8364,-6.9564 60.3369,-1.2771 110.1116,-2.5897 110.6104,-2.917 0.4988,-0.3271 6.3325,-11.4209 12.9639,-24.6527 38.7339,-77.2872 98.9463,-128.6271 178.6831,-152.3537 17.8729,-5.3183 34.3949,-13.7591 48.7477,-24.9042 62.2798,-48.3614 137.4877,-52.9367 204.715,-12.454 l 22.5996,13.6089 h 72.6693 72.6693 l -0.023,-37.5302 c -0.011,-20.6416 -1.1145,-51.5475 -2.4484,-68.6799 l -2.4252,-31.1498 -286.8893,-2.2604 c -275.0981,-2.1676 -287.2977,-2.5646 -296.8305,-9.6605 -20.1669,-15.0118 -19.6465,-39.2332 1.1355,-52.8501 8.4763,-5.5539 42.0719,-6.458 311.002,-8.3699 l 301.4991,-2.1434 13.3808,9.2202 c 24.942,17.1867 30.8836,30.6905 30.9012,70.2319 0.01,19.27 1.1419,57.1213 2.5186,84.1142 l 2.503,49.0779 h 151.1364 c 83.125,0 153.8023,-1.023 157.0606,-2.2733 4.723,-1.8124 -8.8731,-31.8599 -67.0569,-148.196 l -72.981,-145.9227 -43.2941,-0.3847 c -183.6163,-1.6317 -406.3327,-6.5172 -412.0019,-9.0378 -10.3475,-4.6004 -19.006,-24.0702 -16.2614,-36.566 4.9716,-22.6358 15.0296,-26.9937 68.5618,-29.7069 l 48.6762,-2.467 3.9807,-12.0616 c 4.6741,-14.1626 26.7697,-37.9449 47.3139,-50.9255 28.8408,-18.2228 53.6695,-21.4629 150.7137,-19.6677 109.5103,2.0259 120.5711,5.1301 160.2984,44.9878 24.6038,24.6846 27.9193,30.6136 122.3512,218.7967 l 97.0621,193.4247 254.8749,0.1359 c 271.8565,0.1447 334.1415,2.5135 390.6327,14.8551 89.2463,19.4977 198.3161,65.9825 254.9517,108.6586 66.0234,49.7502 106.0687,106.4175 123.1875,174.3204 18.0875,71.7455 3.1203,135.8037 -48.1979,206.2813 -25.7171,35.3186 -34.5533,44.3407 -67.7822,69.2083 -54.1391,40.5162 -135.1175,76.6803 -225.6983,100.7944 l -45.1934,12.0312 -215.5578,2.9437 c -118.5568,1.6191 -262.3262,3.1222 -319.4875,3.3402 l -103.9296,0.3965 -57.7387,115.9789 c -131.4027,263.9469 -150.8797,294.9029 -201.1205,319.6529 l -25.7887,12.7042 -100.1786,0.8106 c -76.0206,0.615 -103.4782,-0.4339 -113.8614,-4.3498 z m 199.7997,-64.0596 c 10.4795,-2.2474 21.9548,-7.292 25.5007,-11.2101 6.1938,-6.8441 5.4834,-7.2272 -18.0816,-9.7508 -32.505,-3.4809 -209.3509,-0.8476 -213.3704,3.1773 -4.5282,4.5342 13.9434,17.374 27.5329,19.1385 26.4715,3.4371 160.8318,2.4168 178.4184,-1.3549 z m -377.7053,-423.0023 c 24.7434,-10.7584 48.5699,-35.8611 61.2479,-64.5283 l 9.4888,-21.4559 -1.1621,-222.1279 -1.1621,-222.1279 -13.4723,-26.3528 c -15.2171,-29.7655 -43.9568,-56.3446 -68.2066,-63.0788 -42.6132,-11.8337 -104.9391,1.4561 -116.314,24.8018 -4.798,9.8474 -5.4724,52.8117 -4.6188,294.2391 0.5499,155.4893 1.8768,284.127 2.9488,285.8616 2.3438,3.7922 30.3212,18.3444 43.7684,22.7656 17.632,5.7971 65.9067,1.3844 87.482,-7.9965 z m 1318.3335,-34.511 c 14.2098,-4.0636 27.677,-8.5261 29.9269,-9.9167 2.5963,-1.6046 -1.4265,-12.6172 -11.0102,-30.1417 -33.6272,-61.4897 -49.9807,-125.8011 -53.0255,-208.528 -3.4596,-93.9945 12.4088,-168.6949 50.8222,-239.2458 9.3992,-17.2625 17.0893,-32.2797 17.0893,-33.3715 0,-3.5933 -36.2771,-14.1218 -67.6857,-19.644 -25.4772,-4.4793 -129.0223,-5.5384 -594.5745,-6.0814 -310.0486,-0.3615 -564.84,-0.5037 -566.2029,-0.3157 -1.363,0.1879 1.7891,13.7661 7.0045,30.1735 l 9.4825,29.8317 0.6941,217.4824 c 0.6377,199.8451 0.1301,219.3554 -6.2601,240.5779 -3.8248,12.7025 -7.8389,26.1268 -8.9202,29.8317 -1.8663,6.3945 27.6794,6.7362 582.4287,6.7362 564.6811,0 585.2663,-0.2495 610.2309,-7.3885 z m -1525.201,-264.9457 c -0.035,-137.4054 -1.5728,-247.7809 -3.4992,-250.824 -5.6962,-8.9985 -42.8065,12.0555 -72.8246,41.3159 -32.5383,31.7172 -51.8402,68.6152 -60.7669,116.1639 -8.2642,44.0193 -5.6538,164.6313 4.2487,196.3116 17.2931,55.3245 62.5385,114.5564 102.1069,133.6708 33.9007,16.3765 30.8015,40.2377 30.7351,-236.6382 z m 1660.0751,222.3105 c 63.2297,-27.9695 136.2455,-85.9206 158.5601,-125.8459 27.46,-49.1312 34.7796,-92.6603 23.2049,-137.9976 -14.7825,-57.9022 -48.843,-101.7545 -109.964,-141.5769 -33.7117,-21.9642 -93.3881,-52.6564 -102.3826,-52.6564 -9.7593,0 -31.9844,36.6955 -43.1298,71.211 -20.0366,62.0502 -24.6142,93.5534 -24.3302,167.4423 0.2083,54.1301 1.7529,73.0558 7.8645,96.3497 9.8239,37.4436 28.3401,84.9764 43.0631,110.5473 13.3387,23.1665 19.4108,24.7809 47.114,12.5265 z M 2039.6945,2184.8937 c 6.7638,-2.6544 6.5402,-3.4535 -3.0854,-11.025 -14.2372,-11.1989 -37.04,-13.276 -129.8752,-11.83 -71.736,1.1173 -80.2657,1.9521 -87.5704,8.5706 -10.3454,9.3736 -10.2119,12.8946 0.5678,14.9708 15.1311,2.9144 212.3562,2.299 219.9632,-0.6864 z"
         id="path6518"
         transform="translate(4.41,5.435)" />
      <path
         style="fill:url(#linearGradient12622);fill-opacity:1;stroke:none;stroke-width:27.2183;stroke-linecap:round;stroke-miterlimit:4;stroke-dasharray:none;stroke-opacity:1"
         d="m 2530.2858,2423.5797 c -12.2704,-4.9117 -27.1574,-19.0063 -33.15,-31.3853 -19.3601,-39.9926 9.9491,-88.9444 53.2543,-88.9444 15.532,0 28.411,5.5878 41.7032,18.0938 32.8795,30.9349 24.4304,79.5484 -17.3401,99.7692 -11.8955,5.7585 -33.2805,6.9448 -44.4674,2.4667 z"
         id="path6974"
         transform="translate(4.41,5.435)" />
      <path
         style="fill:url(#linearGradient12624);fill-opacity:1;stroke:none;stroke-width:27.2183;stroke-linecap:round;stroke-miterlimit:4;stroke-dasharray:none;stroke-opacity:1"
         d="m 2315.1146,2407.9937 c -22.3307,-3.5201 -34.4448,-30.7675 -23.2791,-52.3597 5.4116,-10.4649 23.6098,-19.8582 34.036,-17.5683 9.0393,1.9854 26.2214,19.8373 28.736,29.8563 5.2326,20.8484 -17.1797,43.5891 -39.4929,40.0717 z"
         id="path7013"
         transform="translate(4.41,5.435)" />
      <path
         style="fill:url(#linearGradient12628);fill-opacity:1;stroke:none;stroke-width:27.2183;stroke-linecap:round;stroke-miterlimit:4;stroke-dasharray:none;stroke-opacity:1"
         d="m 2533.3209,3492.1219 c -38.738,-16.8359 -54.4736,-57.8076 -34.5848,-90.0499 11.1064,-18.0048 32.5285,-31.0876 50.9036,-31.0876 34.229,0 61.9546,27.5822 61.9546,61.6343 0,27.8955 -16.2356,50.223 -43.2012,59.4111 -14.9438,5.0918 -23.5163,5.1143 -35.0722,0.092 z"
         id="path7052"
         transform="translate(4.41,5.435)" />
      <path
         style="fill:url(#linearGradient12626);fill-opacity:1;stroke:none;stroke-width:27.2183;stroke-linecap:round;stroke-miterlimit:4;stroke-dasharray:none;stroke-opacity:1"
         d="m 2307.3262,3452.3683 c -19.2949,-9.6615 -25.5215,-31.7414 -14.1429,-50.1523 12.2034,-19.7455 36.4687,-22.2738 51.3296,-5.3481 10.9996,12.5278 13.2529,25.3744 6.747,38.4659 -9.787,19.6938 -26.0385,25.9951 -43.9337,17.0345 z"
         id="path7091"
         transform="translate(4.41,5.435)" />
    </g>
  </g>
</svg>
